<svg width="167" height="33" viewBox="0 0 167 33" fill="none" xmlns="http://www.w3.org/2000/svg">
<path d="M2.25323 32.9992C1.95629 32.9982 1.66244 32.9387 1.38849 32.8242C1.11453 32.7096 0.865826 32.5422 0.656585 32.3315C0.447343 32.1208 0.281662 31.8709 0.169006 31.5962C0.0563507 31.3214 -0.00107411 31.0272 1.52122e-05 30.7302V2.26813C-0.000965113 1.97125 0.0565388 1.67709 0.169243 1.40243C0.281948 1.12778 0.447647 0.878016 0.656878 0.667401C0.866109 0.456786 1.11478 0.289446 1.38868 0.174933C1.66258 0.0604201 1.95636 0.000977099 2.25323 0H30.5977C30.8946 0.00020793 31.1884 0.0591696 31.4623 0.173483C31.7363 0.287797 31.9849 0.455204 32.1938 0.666049C32.4027 0.876895 32.5678 1.12701 32.6796 1.40197C32.7914 1.67694 32.8477 1.97131 32.8452 2.26813V30.731C32.8463 31.0281 32.7888 31.3224 32.6761 31.5972C32.5634 31.872 32.3976 32.1219 32.1883 32.3326C31.979 32.5433 31.7302 32.7107 31.4561 32.8252C31.1821 32.9397 30.8881 32.9991 30.5911 33L2.25323 32.9992ZM23.2087 26.213C23.2105 25.5483 22.9482 24.9101 22.4796 24.4386C22.011 23.9672 21.3743 23.7012 20.7096 23.699C20.0449 23.7012 19.4082 23.9672 18.9396 24.4386C18.4709 24.9101 18.2087 25.5483 18.2104 26.213C18.2085 26.8779 18.4706 27.5163 18.9393 27.9879C19.4079 28.4596 20.0447 28.7257 20.7096 28.7279C21.3745 28.7257 22.0112 28.4596 22.4799 27.9879C22.9486 27.5163 23.2107 26.8779 23.2087 26.213ZM14.2903 26.213C14.2913 25.8838 14.2274 25.5577 14.1023 25.2532C13.9773 24.9487 13.7934 24.6718 13.5614 24.4384C13.3293 24.2049 13.0535 24.0195 12.7498 23.8926C12.446 23.7657 12.1203 23.6999 11.7911 23.699C11.1262 23.7009 10.4894 23.9669 10.0206 24.4383C9.55174 24.9098 9.28937 25.5481 9.29113 26.213C9.29015 26.5423 9.35403 26.8686 9.47914 27.1731C9.60424 27.4777 9.78812 27.7547 10.0203 27.9882C10.2524 28.2218 10.5283 28.4073 10.8321 28.5342C11.136 28.6611 11.4618 28.7269 11.7911 28.7279C12.1204 28.7269 12.4462 28.6611 12.75 28.5342C13.0538 28.4073 13.3296 28.2217 13.5617 27.9882C13.7938 27.7546 13.9775 27.4777 14.1026 27.1731C14.2276 26.8685 14.2914 26.5423 14.2903 26.213ZM9.29113 7.53143C9.29015 7.86071 9.35403 8.18696 9.47914 8.49156C9.60424 8.79615 9.78812 9.07312 10.0203 9.30665C10.2524 9.54018 10.5283 9.72569 10.8321 9.85261C11.136 9.97952 11.4618 10.0453 11.7911 10.0463C12.1204 10.0453 12.4462 9.97952 12.75 9.85259C13.0538 9.72567 13.3296 9.54014 13.5617 9.3066C13.7938 9.07306 13.9775 8.79608 14.1026 8.49149C14.2276 8.18691 14.2914 7.86067 14.2903 7.53143C14.2913 7.20226 14.2274 6.87611 14.1023 6.57162C13.9773 6.26713 13.7934 5.99026 13.5614 5.7568C13.3293 5.52335 13.0535 5.33789 12.7498 5.21102C12.446 5.08415 12.1203 5.01834 11.7911 5.01737C11.1262 5.01934 10.4894 5.2853 10.0206 5.75675C9.55174 6.22821 9.28937 6.86656 9.29113 7.53143ZM18.2096 7.53143C18.2086 7.86078 18.2725 8.1871 18.3977 8.49175C18.5228 8.79639 18.7068 9.0734 18.939 9.30694C19.1713 9.54048 19.4472 9.72598 19.7512 9.85284C20.0551 9.97971 20.3811 10.0455 20.7104 10.0463C21.3751 10.0439 22.0117 9.77765 22.4802 9.30606C22.9487 8.83447 23.2107 8.19616 23.2087 7.53143C23.2105 6.8667 22.9482 6.22847 22.4796 5.75704C22.011 5.28561 21.3743 5.01956 20.7096 5.01737C20.0449 5.01956 19.4082 5.28561 18.9396 5.75704C18.4709 6.22847 18.2087 6.8667 18.2104 7.53143H18.2096ZM27.8485 12.2051C27.8485 12.2051 23.0249 17.2349 16.4292 17.2349C9.8327 17.2349 5.36601 12.2051 5.36601 12.2051L4.29529 13.2833C4.29529 13.2833 9.30769 19.749 16.4292 19.749C23.5507 19.749 28.9192 13.2833 28.9192 13.2833L27.8485 12.2051Z" fill="#0091DB"/>
<path d="M60.5851 23.4364L60.2887 17.1488C60.1976 15.1597 60.0842 12.7591 60.1065 10.679H60.0386C59.505 12.6668 58.8973 14.6341 58.2168 16.5766L55.9876 23.2534H53.8255L51.7776 16.6685C51.1819 14.6934 50.6654 12.6953 50.2291 10.679H50.1844C50.1157 12.6912 50.0254 15.1365 49.9111 17.2407L49.57 23.4364H46.9524L47.9767 8.02578H51.6634L53.6657 14.2223C54.1993 15.9885 54.6702 17.7731 55.0776 19.5726H55.1455C55.5873 17.7635 56.096 15.9714 56.6708 14.2L58.7865 8.02578H62.4285L63.3162 23.4364H60.5851ZM65.4063 9.19255C65.4063 8.32306 66.0439 7.66059 66.9771 7.66059C67.9327 7.66059 68.5248 8.32306 68.5472 9.19255C68.5472 10.0389 67.9327 10.7013 66.9539 10.7013C66.0207 10.7013 65.4063 10.0389 65.4063 9.19255ZM65.5661 12.302H68.3874V23.4282H65.5661V12.302ZM77.9973 23.4364V17.1488C77.9973 15.5481 77.4052 14.3366 75.8807 14.3366C74.7653 14.3366 73.9918 15.1365 73.6962 15.9828C73.6051 16.2346 73.5828 16.5766 73.5828 16.897V23.4364H70.7598V15.6168C70.7598 14.3366 70.7375 13.2618 70.6687 12.302H73.1265L73.2631 13.9706H73.3319C73.8097 13.1019 75.0162 12.0503 76.8595 12.0503C78.7939 12.0503 80.797 13.3081 80.797 16.8283V23.4364H77.9973ZM91.4048 23.4364L91.2914 21.6759H91.2458C90.5858 22.9098 89.2435 23.6882 87.6271 23.6882C84.9863 23.6882 82.8937 21.425 82.8937 17.9951C82.8706 14.2687 85.1917 12.0503 87.854 12.0503C89.3793 12.0503 90.4716 12.6904 90.9725 13.5135H91.0181V7.20349H93.817V20.3038C93.817 21.4466 93.8634 22.6821 93.9081 23.4364H91.4048ZM91.0098 16.9401C91.0097 16.6948 90.987 16.45 90.9419 16.2089C90.6918 15.1134 89.8049 14.2223 88.5322 14.2223C86.7377 14.2223 85.7382 15.8205 85.7382 17.899C85.7382 19.9312 86.7377 21.4167 88.5106 21.4167C89.6468 21.4167 90.6455 20.64 90.9187 19.4293C90.9874 19.1784 91.0098 18.9043 91.0098 18.6079V16.9401ZM99.2551 22.2009H99.2095V27.9636H96.4106V16.006C96.4082 14.7708 96.3779 13.5358 96.3195 12.302H98.7764L98.9139 14.0161H98.9594C99.7792 12.7591 101.076 12.0503 102.76 12.0503C105.308 12.0503 107.425 14.2447 107.425 17.7202C107.425 21.7447 104.899 23.6882 102.374 23.6882C100.984 23.6882 99.8231 23.0936 99.2551 22.2009ZM99.323 16.348C99.2522 16.5781 99.214 16.817 99.2095 17.0577V18.7718C99.2095 19.0468 99.2327 19.2985 99.3006 19.5494C99.573 20.6922 100.573 21.5153 101.754 21.5153C103.526 21.5153 104.572 20.0297 104.572 17.8353C104.572 15.8686 103.618 14.2679 101.823 14.2679C100.664 14.2679 99.5954 15.1142 99.3221 16.348H99.323ZM115.548 23.4447L115.366 22.2084H115.298C114.616 23.0779 113.454 23.6965 112.021 23.6965C109.791 23.6965 108.539 22.0718 108.539 20.3783C108.539 17.5645 111.019 16.146 115.116 16.1683V15.9862C115.116 15.2533 114.82 14.0402 112.863 14.0402C111.77 14.0402 110.633 14.3838 109.882 14.8649L109.335 13.034C110.155 12.5306 111.589 12.0503 113.34 12.0503C116.891 12.0503 117.915 14.3151 117.915 16.7405V20.7675C117.915 21.7745 117.961 22.7582 118.074 23.4439L115.548 23.4447ZM115.184 17.9959C113.205 17.9487 111.316 18.3843 111.316 20.0752C111.316 21.1733 112.02 21.6759 112.909 21.6759C114.023 21.6759 114.843 20.9439 115.093 20.144C115.162 19.9378 115.184 19.7092 115.184 19.527V17.9959ZM130.828 23.4282H127.665L126.299 21.2122C125.943 20.6231 125.609 20.0209 125.298 19.407H125.253C124.934 20.0471 124.615 20.5953 124.251 21.2122L122.977 23.4282H119.881L123.727 17.7624L120.018 12.302H123.136L124.456 14.4037C124.821 14.9974 125.138 15.5464 125.458 16.117H125.526C125.845 15.5001 126.164 14.9287 126.482 14.3581L127.711 12.302H130.76L127.051 17.6481L130.828 23.4282ZM131.836 21.8863C131.836 20.8313 132.562 20.0752 133.562 20.0752C134.583 20.0752 135.287 20.8089 135.287 21.8863C135.287 22.9172 134.606 23.6965 133.562 23.6965C132.54 23.6965 131.836 22.9172 131.836 21.8863ZM151.263 23.4364V17.2862C151.263 15.4347 150.626 14.3366 149.283 14.3366C148.326 14.3366 147.62 15.0231 147.325 15.823C147.256 16.0971 147.188 16.4399 147.188 16.7604V23.4364H144.455V16.989C144.455 15.4347 143.841 14.3366 142.542 14.3366C141.495 14.3366 140.789 15.1597 140.538 15.9373C140.426 16.2114 140.38 16.5319 140.38 16.8515V23.4364H137.648V15.6168C137.648 14.3366 137.624 13.2618 137.556 12.302H139.969L140.084 13.9482H140.152C140.698 13.0788 141.7 12.0503 143.568 12.0503C145.025 12.0503 146.164 12.8734 146.641 14.1081H146.686C147.074 13.4911 147.53 13.0332 148.052 12.7136C148.668 12.2788 149.373 12.0511 150.284 12.0511C152.128 12.0511 153.996 13.3081 153.996 16.8747V23.4364H151.263ZM158.995 18.6584C159.063 20.6706 160.633 21.5385 162.408 21.5385C163.705 21.5385 164.638 21.3563 165.48 21.0358L165.89 22.9785C164.934 23.3677 163.615 23.665 162.021 23.665C158.426 23.665 156.309 21.4474 156.309 18.0406C156.309 14.9544 158.175 12.0503 161.725 12.0503C165.321 12.0503 166.505 15.0231 166.505 17.4693C166.508 17.8672 166.478 18.2648 166.414 18.6576L158.995 18.6584ZM158.995 16.6917H163.873C163.895 15.6632 163.44 13.9706 161.571 13.9706C159.839 13.9706 159.108 15.5481 158.995 16.6917Z" fill="white"/>
</svg>
